<svg version="1.1" xmlns="http://www.w3.org/2000/svg" xmlns:xlink="http://www.w3.org/1999/xlink" width="24px" height="24px" viewBox="0,0,256,256"><g fill="#9aa0a6" fill-rule="nonzero" stroke="none" stroke-width="1" stroke-linecap="butt" stroke-linejoin="miter" stroke-miterlimit="10" stroke-dasharray="" stroke-dashoffset="0" font-family="none" font-weight="none" font-size="none" text-anchor="none" style="mix-blend-mode: normal"><g transform="translate(2.72,2.72) scale(10.66667,10.66667)"><path d="M15.5,14h-0.79l-0.28,-0.27c1.01387,-1.17598 1.5711,-2.67731 1.57,-4.23c0,-3.58985 -2.91015,-6.5 -6.5,-6.5c-3.58985,0 -6.5,2.91015 -6.5,6.5c0,3.58985 2.91015,6.5 6.5,6.5c1.61,0 3.09,-0.59 4.23,-1.57l0.27,0.28v0.79l5,4.99l1.49,-1.49zM9.5,14c-2.49,0 -4.5,-2.01 -4.5,-4.5c0,-2.49 2.01,-4.5 4.5,-4.5c2.49,0 4.5,2.01 4.5,4.5c0,2.49 -2.01,4.5 -4.5,4.5z"></path></g></g></svg>