<svg version="1.1" xmlns="http://www.w3.org/2000/svg" xmlns:xlink="http://www.w3.org/1999/xlink" width="30px" height="20px" viewBox="0,0,256,170.66251"><g fill="#9aa0a6" fill-rule="nonzero" stroke="none" stroke-width="1" stroke-linecap="butt" stroke-linejoin="miter" stroke-miterlimit="10" stroke-dasharray="" stroke-dashoffset="0" font-family="none" font-weight="none" font-size="none" text-anchor="none" style="mix-blend-mode: normal"><g transform="translate(1.62069,-3.37916) scale(8.82759,8.53333)"><g id="surface1"><path d="M3.75391,4.83203c-0.39062,0.07422 -0.62891,0.32422 -0.67187,0.71094c-0.00781,0.06641 -0.01172,1.69922 -0.01172,4.90625l0.00391,4.80859l0.02734,0.09375c0.08984,0.32031 0.29297,0.53125 0.57813,0.60156c0.08203,0.01953 0.46094,0.01953 10.62109,0.01953c10.17188,0 10.53906,0 10.625,-0.01953c0.19141,-0.04687 0.32422,-0.125 0.44141,-0.25391c0.08203,-0.08984 0.12891,-0.18359 0.16797,-0.32422l0.02734,-0.09375v-9.73437l-0.02734,-0.09766c-0.08203,-0.32031 -0.26953,-0.52344 -0.55859,-0.60937c-0.06641,-0.01953 -0.67187,-0.01953 -10.60547,-0.01953c-8.60547,-0.00391 -10.55078,0 -10.61719,0.01172zM24.84375,5.19141c0.18359,0.03125 0.28516,0.12891 0.34766,0.33203c0.01953,0.06641 0.01953,0.24609 0.01953,4.89062c0,4.57031 0,4.82422 -0.01953,4.88672c-0.03516,0.12109 -0.12891,0.21875 -0.25391,0.26953l-0.06641,0.02734l-10.54297,0.00391c-10.49219,0.00391 -10.53906,0.00391 -10.61328,-0.01953c-0.125,-0.03906 -0.21094,-0.13281 -0.26562,-0.29687l-0.02344,-0.07422l-0.00391,-4.75391c0,-3.00781 0.00391,-4.79688 0.00781,-4.85938c0.00781,-0.05469 0.02344,-0.12891 0.03516,-0.16016c0.05078,-0.11719 0.17188,-0.20703 0.33203,-0.24219c0.05859,-0.01172 1.78516,-0.01562 10.52344,-0.01562c7.26953,0 10.47266,0 10.52344,0.01172zM24.84375,5.19141"></path><path d="M4.69531,6.53516c-0.01953,0.01172 -0.04297,0.03906 -0.05078,0.0625c-0.01953,0.05859 -0.01562,1.19141 0.00391,1.24609c0.03516,0.07813 0.00391,0.07422 0.67187,0.07422h0.60547l0.03516,-0.03125l0.03906,-0.03516v-0.59766c0.00391,-0.40625 0,-0.61328 -0.00781,-0.64844c-0.00781,-0.03125 -0.02344,-0.05469 -0.04688,-0.07031c-0.03516,-0.01953 -0.0625,-0.02344 -0.625,-0.02344c-0.55859,0 -0.59375,0.00391 -0.625,0.02344zM4.69531,6.53516"></path><path d="M6.6875,6.53516c-0.02344,0.01563 -0.04297,0.03906 -0.05078,0.05469c-0.00391,0.01953 -0.01172,0.26953 -0.01172,0.62891c0,0.64844 0.00391,0.65625 0.06641,0.6875c0.01953,0.00781 0.20313,0.01172 0.62891,0.01172h0.60156l0.03125,-0.03125c0.02344,-0.02734 0.03125,-0.05078 0.03906,-0.09766c0.00391,-0.03516 0.00391,-0.3125 0.00391,-0.62109c-0.00391,-0.60937 -0.00391,-0.60937 -0.07031,-0.64062c-0.02344,-0.01172 -0.1875,-0.01562 -0.61719,-0.01562c-0.56641,0 -0.58594,0.00391 -0.62109,0.02344zM6.6875,6.53516"></path><path d="M8.69141,6.52344c-0.01172,0.00781 -0.03516,0.02734 -0.04687,0.04297c-0.02344,0.03125 -0.02344,0.03906 -0.02344,0.64063c0,0.65234 0,0.66797 0.05859,0.69922c0.01953,0.01172 0.15625,0.01172 0.63672,0.01172l0.60938,-0.00391l0.02734,-0.03516l0.02734,-0.03125v-0.62109c0,-0.67187 0,-0.66797 -0.0625,-0.69922c-0.03516,-0.01562 -1.18359,-0.01953 -1.22656,-0.00391zM8.69141,6.52344"></path><path d="M10.6875,6.52344c-0.01562,0.00781 -0.03516,0.02734 -0.05078,0.04297c-0.02344,0.03125 -0.02344,0.03906 -0.02344,0.64844c0,0.65234 0.00391,0.66406 0.05859,0.69141c0.01172,0.00781 0.23047,0.01172 0.61719,0.01172c0.64844,0 0.64844,0 0.67188,-0.0625c0.00781,-0.01953 0.01172,-0.28125 0.01172,-0.64844v-0.61328l-0.03906,-0.03906l-0.03516,-0.04297l-0.59375,0.00391c-0.32813,0 -0.60547,0.00391 -0.61719,0.00781zM10.6875,6.52344"></path><path d="M12.66797,6.53125c-0.01953,0.01172 -0.03906,0.03125 -0.04687,0.04688c-0.00781,0.02344 -0.01172,0.21094 -0.01172,0.64063c0,0.64844 0,0.66016 0.05469,0.6875c0.01563,0.00781 0.23047,0.01172 0.61719,0.01172c0.65234,0 0.64844,0 0.67578,-0.06641c0.00781,-0.02344 0.01172,-0.19922 0.00781,-0.65234l-0.00391,-0.61719l-0.03516,-0.03516l-0.03906,-0.03516h-0.58984c-0.50781,0 -0.59766,0.00391 -0.62891,0.01953zM12.66797,6.53125"></path><path d="M14.66016,6.53125c-0.01562,0.00781 -0.03906,0.02734 -0.04687,0.03906c-0.00781,0.01563 -0.01172,0.22656 -0.01172,0.65234v0.62891l0.06641,0.06641h0.60156c0.65234,0 0.64844,0 0.67969,-0.0625c0.00781,-0.02344 0.01172,-0.19141 0.01172,-0.63672c0,-0.58594 0,-0.60547 -0.02344,-0.64453c-0.01172,-0.01953 -0.03516,-0.04297 -0.05078,-0.05078c-0.01562,-0.00391 -0.25781,-0.01172 -0.60937,-0.01172c-0.46875,0.00391 -0.58594,0.00391 -0.61719,0.01953zM14.66016,6.53125"></path><path d="M16.64453,6.53516c-0.02344,0.01563 -0.03906,0.03906 -0.04687,0.07031c-0.01953,0.05859 -0.01953,1.16406 -0.00391,1.22266c0.00781,0.02344 0.02734,0.05469 0.04297,0.06641c0.02734,0.02344 0.04297,0.02344 0.63281,0.02344h0.60547l0.03516,-0.03125l0.03906,-0.03516l0.00391,-0.61328c0,-0.56641 0,-0.61719 -0.01562,-0.65625c-0.01172,-0.01953 -0.03516,-0.04687 -0.05078,-0.05469c-0.01953,-0.01172 -0.16797,-0.01562 -0.61719,-0.01562c-0.5625,0 -0.58984,0.00391 -0.625,0.02344zM16.64453,6.53516"></path><path d="M18.64063,6.53516c-0.01953,0.01172 -0.04297,0.03906 -0.05078,0.0625c-0.01953,0.05859 -0.01562,1.19141 0.00391,1.24609c0.03125,0.07813 0.00391,0.07422 0.67188,0.07422h0.60547l0.03516,-0.03125l0.03516,-0.03516l0.00391,-0.59766c0.00391,-0.40625 0,-0.61328 -0.00781,-0.64844c-0.00781,-0.03125 -0.02344,-0.05469 -0.04687,-0.07031c-0.03516,-0.01953 -0.0625,-0.02344 -0.62891,-0.02344c-0.55859,0 -0.58984,0.00391 -0.62109,0.02344zM18.64063,6.53516"></path><path d="M20.62891,6.53516c-0.01953,0.01563 -0.03906,0.03906 -0.04687,0.05469c-0.00391,0.01953 -0.01172,0.26953 -0.01172,0.62891c0,0.64844 0.00391,0.65625 0.06641,0.6875c0.01953,0.00781 0.20313,0.01172 0.62891,0.01172h0.60156l0.03125,-0.03125l0.03125,-0.03516v-0.625c0,-0.67187 0,-0.66797 -0.0625,-0.69922c-0.01953,-0.01172 -0.18359,-0.01562 -0.61328,-0.01562c-0.56641,0 -0.58594,0.00391 -0.625,0.02344zM20.62891,6.53516"></path><path d="M22.63672,6.52344c-0.01172,0.00781 -0.03516,0.02734 -0.04687,0.04297c-0.02344,0.03125 -0.02344,0.03906 -0.02344,0.64063c0,0.65234 0,0.66797 0.05859,0.69922c0.01953,0.01172 0.15625,0.01172 0.63672,0.01172l0.60938,-0.00391l0.02734,-0.03516l0.02734,-0.03125v-0.62109c0,-0.67187 0,-0.66797 -0.0625,-0.69922c-0.03516,-0.01562 -1.18359,-0.01953 -1.22656,-0.00391zM22.63672,6.52344"></path><path d="M4.70703,8.64453c-0.01172,0.00781 -0.03125,0.02344 -0.04687,0.03516c-0.01953,0.02734 -0.01953,0.04687 -0.02344,0.625c-0.00391,0.40625 0,0.61328 0.00781,0.64453c0.00781,0.02344 0.02344,0.05469 0.04297,0.06641c0.02734,0.02344 0.03516,0.02344 1.08594,0.02344h1.05859l0.07813,-0.07812l-0.00391,-0.62891v-0.62891l-0.03906,-0.03516l-0.03516,-0.03516l-1.05078,0.00391c-0.57812,0 -1.0625,0.00391 -1.07422,0.00781zM4.70703,8.64453"></path><path d="M7.65625,8.64844c-0.01562,0.00781 -0.03516,0.03516 -0.04687,0.05469c-0.01562,0.03906 -0.01953,0.09375 -0.01953,0.62109c0,0.36328 0.00391,0.59766 0.01172,0.625c0.00781,0.02344 0.02734,0.05469 0.04297,0.06641c0.02734,0.02344 0.03516,0.02344 0.63672,0.02344l0.60938,-0.00391l0.03125,-0.03516l0.03125,-0.03125l0.00391,-0.60156c0.00391,-0.40234 0,-0.61328 -0.00781,-0.64063c-0.00781,-0.02344 -0.02344,-0.05469 -0.04297,-0.06641c-0.02734,-0.02734 -0.03906,-0.02734 -0.625,-0.02734c-0.45312,0 -0.60156,0.00391 -0.625,0.01563zM7.65625,8.64844"></path><path d="M9.71484,8.64453c-0.01172,0.00781 -0.03516,0.02344 -0.04687,0.03516c-0.01953,0.02734 -0.02344,0.04687 -0.02734,0.625c0,0.40625 0,0.61328 0.01172,0.64453c0.00781,0.02344 0.02344,0.05469 0.04297,0.06641c0.02734,0.02344 0.03906,0.02344 0.62109,0.02344c0.64063,0 0.64063,0 0.67578,-0.0625c0.00781,-0.01953 0.01562,-0.15625 0.01562,-0.58594c0.00391,-0.30859 0,-0.58984 -0.00391,-0.625c-0.00391,-0.05078 -0.01562,-0.07422 -0.03906,-0.09766l-0.03125,-0.03516l-0.59766,0.00391c-0.32813,0 -0.60938,0.00391 -0.62109,0.00781zM9.71484,8.64453"></path><path d="M11.74609,8.65234c-0.01562,0.01172 -0.03516,0.03516 -0.04297,0.04688c-0.00781,0.01953 -0.01172,0.22656 -0.01172,0.63281c0,0.65625 0,0.66406 0.0625,0.69531c0.01953,0.00781 0.19922,0.01172 0.61719,0.01172c0.64063,0 0.63672,0 0.66406,-0.0625c0.01172,-0.02344 0.01563,-0.19141 0.01563,-0.64062c0,-0.66016 0,-0.66016 -0.0625,-0.6875c-0.02344,-0.01172 -0.1875,-0.01563 -0.62109,-0.01563c-0.53125,0.00391 -0.59375,0.00391 -0.62109,0.01953zM11.74609,8.65234"></path><path d="M13.79688,8.65234c-0.01953,0.01172 -0.03906,0.02734 -0.04297,0.03906c-0.01953,0.03516 -0.01562,1.24609 0,1.28516c0.02734,0.0625 0.02734,0.0625 0.67188,0.0625h0.59766l0.07812,-0.07812l-0.00781,-1.25781l-0.03516,-0.03516l-0.03906,-0.03516h-0.59766c-0.50391,0.00391 -0.60156,0.00391 -0.625,0.01953zM13.79688,8.65234"></path><path d="M15.83984,8.65625c-0.02344,0.01563 -0.03906,0.03906 -0.04687,0.06641c-0.01562,0.0625 -0.01562,1.16797 0,1.22656c0.00391,0.02344 0.02344,0.05469 0.03906,0.06641c0.03125,0.02344 0.03906,0.02344 0.64063,0.02344l0.60938,-0.00391l0.03125,-0.03516l0.03125,-0.03125l0.00391,-0.60156c0.00391,-0.40234 0,-0.61328 -0.00781,-0.64063c-0.00781,-0.02344 -0.02734,-0.05469 -0.04297,-0.06641c-0.02734,-0.02734 -0.03906,-0.02734 -0.625,-0.02734c-0.57031,0 -0.59766,0.00391 -0.63281,0.02344zM15.83984,8.65625"></path><path d="M17.90234,8.64453c-0.01172,0.00781 -0.03125,0.02344 -0.04297,0.03516c-0.02344,0.02734 -0.02344,0.04687 -0.02734,0.625c0,0.40625 0,0.61328 0.01172,0.64453c0.00391,0.02344 0.02344,0.05469 0.03906,0.06641c0.02734,0.02344 0.04297,0.02344 0.625,0.02344c0.57031,0 0.59766,0 0.63281,-0.02344c0.02344,-0.01562 0.03906,-0.03516 0.04688,-0.06641c0.01953,-0.05859 0.01953,-1.16406 0.00391,-1.22266c-0.00781,-0.02344 -0.02734,-0.05469 -0.04297,-0.07031c-0.02734,-0.02344 -0.04297,-0.02344 -0.625,-0.01953c-0.32813,0 -0.60547,0.00391 -0.62109,0.00781zM17.90234,8.64453"></path><path d="M19.91797,8.67578l-0.03906,0.03906l0.00781,1.25781l0.03906,0.03125l0.03516,0.03516h0.59375c0.63672,0 0.64453,0 0.67578,-0.05469c0.00391,-0.01562 0.01172,-0.24219 0.01172,-0.64062c0,-0.66797 0,-0.66797 -0.0625,-0.69531c-0.02344,-0.01172 -0.1875,-0.01563 -0.625,-0.01563h-0.59766zM19.91797,8.67578"></path><path d="M21.98828,8.65234c-0.05859,0.03125 -0.05469,0.02734 -0.05859,0.68359c0,0.66797 0,0.66406 0.06641,0.69141c0.02344,0.00781 0.28125,0.01172 0.98438,0.01172l0.95703,-0.00391l0.03125,-0.03516l0.03125,-0.03125l0.00391,-0.60156c0,-0.40234 0,-0.61328 -0.01172,-0.64063c-0.00781,-0.02344 -0.02344,-0.05469 -0.04297,-0.06641c-0.02734,-0.02734 -0.03516,-0.02734 -0.98047,-0.02734c-0.76953,0.00391 -0.95703,0.00391 -0.98047,0.01953zM21.98828,8.65234"></path><path d="M4.67578,10.78906l-0.03516,0.03516l-0.00391,0.61328c-0.00391,0.56641 -0.00391,0.61328 0.01563,0.65234c0.01172,0.02344 0.03125,0.04688 0.05078,0.05469c0.01953,0.01172 0.34766,0.01563 1.51953,0.01563c1.64063,0 1.55469,0.00391 1.58203,-0.06641c0.00781,-0.02344 0.01172,-0.21875 0.00781,-0.66016v-0.62109l-0.03516,-0.03125l-0.03125,-0.02734h-3.03516zM4.67578,10.78906"></path><path d="M8.57031,10.76563c-0.0625,0.02734 -0.0625,0.01172 -0.0625,0.6875v0.62891l0.07813,0.07813l0.60547,-0.00391h0.60938l0.03125,-0.03906l0.03516,-0.03906v-0.61719c0,-0.65625 0,-0.66406 -0.05469,-0.69531c-0.02734,-0.01172 -1.20703,-0.01562 -1.24219,0zM8.57031,10.76563"></path><path d="M10.58984,10.78906l-0.03125,0.03516v0.62109c0,0.45703 0.00391,0.62891 0.01172,0.65234c0.03125,0.0625 0.02734,0.0625 0.66406,0.0625c0.56641,0 0.58594,0 0.625,-0.02344c0.01953,-0.01172 0.03906,-0.03906 0.04688,-0.05469c0.00781,-0.01562 0.01172,-0.26562 0.01172,-0.62891c0,-0.64844 0,-0.65625 -0.0625,-0.6875c-0.02344,-0.00781 -0.20703,-0.01172 -0.62891,-0.01172h-0.60156zM10.58984,10.78906"></path><path d="M12.64063,10.78906l-0.03906,0.03516l-0.00391,0.61328c0,0.56641 0,0.61328 0.01953,0.65234c0.01172,0.02344 0.03125,0.04688 0.04687,0.05469c0.02344,0.01172 0.16797,0.01563 0.61719,0.01563c0.56641,0 0.58984,0 0.625,-0.02344c0.02344,-0.01562 0.03906,-0.03516 0.05078,-0.06641c0.01563,-0.05859 0.01563,-1.16406 0,-1.22266c-0.00781,-0.02344 -0.02734,-0.05469 -0.04297,-0.07031c-0.02734,-0.02344 -0.04297,-0.02344 -0.63281,-0.02344h-0.60547zM12.64063,10.78906"></path><path d="M14.70313,10.76953c-0.05469,0.03516 -0.05469,0.03125 -0.05469,0.68359c0,0.58594 0,0.60938 0.01953,0.64453c0.01563,0.02344 0.03906,0.04688 0.05469,0.05078c0.01563,0.00781 0.25781,0.01172 0.60547,0.01172c0.62109,0 0.63281,0 0.66406,-0.05859c0.01172,-0.02344 0.01562,-0.16406 0.01172,-0.66016l-0.00391,-0.62891l-0.03125,-0.03125l-0.03125,-0.02734h-0.60156c-0.48047,0 -0.60938,0.00391 -0.63281,0.01563zM14.70313,10.76953"></path><path d="M16.75391,10.77344c-0.01953,0.00781 -0.03906,0.02734 -0.04297,0.03906c-0.00781,0.01563 -0.01172,0.24219 -0.01172,0.64453v0.625l0.03516,0.03906l0.04297,0.03906l0.60547,-0.00391h0.60938l0.03125,-0.03906l0.03516,-0.03906v-0.61719c0,-0.65625 -0.00391,-0.66406 -0.05859,-0.69531c-0.01172,-0.00781 -0.23047,-0.01172 -0.62109,-0.01172c-0.50391,0 -0.60156,0.00391 -0.625,0.01953zM16.75391,10.77344"></path><path d="M18.78125,10.78906l-0.03125,0.03516v0.62109c0,0.45703 0,0.62891 0.01172,0.65234c0.02734,0.0625 0.02734,0.0625 0.66406,0.0625c0.56641,0 0.58594,0 0.62109,-0.02344c0.02344,-0.01172 0.04297,-0.03906 0.05078,-0.05469c0.00391,-0.01562 0.01172,-0.26562 0.01172,-0.62891c0,-0.64844 -0.00391,-0.65625 -0.06641,-0.6875c-0.01953,-0.00781 -0.20312,-0.01172 -0.62891,-0.01172h-0.60156zM18.78125,10.78906"></path><path d="M20.83203,10.78906l-0.03906,0.03516v0.625c0,0.58203 0,0.625 0.01953,0.65625c0.01172,0.01953 0.03516,0.03906 0.05078,0.04297c0.01563,0.00781 0.60547,0.01172 1.53516,0.01172c1.66797,0 1.55859,0.00781 1.58984,-0.07422c0.02344,-0.05859 0.02344,-1.19531 0,-1.25391c-0.03516,-0.08594 0.10156,-0.07812 -1.59375,-0.07812h-1.52734zM20.83203,10.78906"></path><path d="M4.71875,12.87891c-0.02734,0.01172 -0.04687,0.01953 -0.04687,0.01953c0,0 -0.01172,0.01562 -0.01953,0.03906c-0.01562,0.03516 -0.01953,0.10938 -0.01953,0.63281c0,0.42188 0.00391,0.59766 0.01563,0.62891c0.00781,0.02734 0.02734,0.04688 0.05469,0.05859c0.03516,0.02344 0.13281,0.02344 1.51953,0.02344c1.59766,0 1.53125,0 1.57422,-0.05859c0.01563,-0.02734 0.01953,-0.09375 0.01953,-0.65234c0,-0.60937 0,-0.62109 -0.02344,-0.65234c-0.01172,-0.01562 -0.04297,-0.03516 -0.06641,-0.04297c-0.02734,-0.00781 -0.53516,-0.01172 -1.5,-0.01172c-1.24609,0 -1.46875,0.00391 -1.50781,0.01563zM4.71875,12.87891"></path><path d="M8.5625,12.87891c-0.05078,0.01953 -0.07422,0.04688 -0.08203,0.09375c-0.00391,0.01953 -0.00781,0.30469 -0.00391,0.62891c0.00391,0.55078 0.00391,0.59375 0.02344,0.62109c0.01172,0.01953 0.03516,0.03906 0.05469,0.04688c0.02344,0.00781 1.69922,0.01172 5.73828,0.01172c4.90234,0 5.70703,-0.00391 5.74219,-0.01562c0.07422,-0.03516 0.07422,-0.02344 0.07422,-0.69141c0,-0.54687 -0.00391,-0.60156 -0.02344,-0.64062c-0.01172,-0.02734 -0.03125,-0.04687 -0.05859,-0.05469c-0.0625,-0.02344 -11.40625,-0.01953 -11.46484,0zM8.5625,12.87891"></path><path d="M20.87109,12.87891c-0.02344,0.01172 -0.04687,0.01953 -0.04687,0.01953c0,0 -0.00781,0.01562 -0.01953,0.03906c-0.01563,0.03516 -0.01563,0.10938 -0.01563,0.63281c0,0.42188 0.00391,0.59766 0.01172,0.62891c0.01172,0.02734 0.02734,0.04688 0.05469,0.05859c0.03516,0.02344 0.13281,0.02344 1.51953,0.02344c1.59766,0 1.53516,0 1.57813,-0.05859c0.01563,-0.02734 0.01563,-0.09375 0.01563,-0.65234c0,-0.60937 0,-0.62109 -0.01953,-0.65234c-0.01562,-0.01562 -0.04297,-0.03516 -0.06641,-0.04297c-0.02734,-0.00781 -0.53516,-0.01172 -1.50391,-0.01172c-1.24219,0 -1.46875,0.00391 -1.50781,0.01563zM20.87109,12.87891"></path></g></g></g></svg>