<svg version="1.1" xmlns="http://www.w3.org/2000/svg" xmlns:xlink="http://www.w3.org/1999/xlink" width="25px" height="25px" viewBox="0,0,256,256"><g fill="#5f6368" fill-rule="nonzero" stroke="none" stroke-width="1" stroke-linecap="butt" stroke-linejoin="miter" stroke-miterlimit="10" stroke-dasharray="" stroke-dashoffset="0" font-family="none" font-weight="none" font-size="none" text-anchor="none" style="mix-blend-mode: normal"><g transform="scale(10.24,10.24)"><g id="surface1"><path d="M5.83594,3.75c-1.15234,0 -2.08594,0.93359 -2.08594,2.08594c0,1.14844 0.93359,2.07812 2.08594,2.07812c1.14844,0 2.07812,-0.92969 2.07812,-2.07812c0,-1.15234 -0.92969,-2.08594 -2.07812,-2.08594zM12.5,3.75c-1.15234,0 -2.08594,0.93359 -2.08594,2.08594c0,1.14844 0.93359,2.07812 2.08594,2.07812c1.15234,0 2.08594,-0.92969 2.08594,-2.07812c0,-1.15234 -0.93359,-2.08594 -2.08594,-2.08594zM19.16406,3.75c-1.14844,0 -2.07812,0.93359 -2.07812,2.08594c0,1.14844 0.92969,2.07812 2.07812,2.07812c1.15234,0 2.08594,-0.92969 2.08594,-2.07812c0,-1.15234 -0.93359,-2.08594 -2.08594,-2.08594zM5.83594,10.41406c-1.15234,0 -2.08594,0.93359 -2.08594,2.08594c0,1.15234 0.93359,2.08594 2.08594,2.08594c1.14844,0 2.07812,-0.93359 2.07812,-2.08594c0,-1.15234 -0.92969,-2.08594 -2.07812,-2.08594zM12.5,10.41406c-1.15234,0 -2.08594,0.93359 -2.08594,2.08594c0,1.15234 0.93359,2.08594 2.08594,2.08594c1.15234,0 2.08594,-0.93359 2.08594,-2.08594c0,-1.15234 -0.93359,-2.08594 -2.08594,-2.08594zM19.16406,10.41406c-1.14844,0 -2.07812,0.93359 -2.07812,2.08594c0,1.15234 0.92969,2.08594 2.07812,2.08594c1.15234,0 2.08594,-0.93359 2.08594,-2.08594c0,-1.15234 -0.93359,-2.08594 -2.08594,-2.08594zM5.83594,17.08594c-1.15234,0 -2.08594,0.92969 -2.08594,2.07812c0,1.15234 0.93359,2.08594 2.08594,2.08594c1.14844,0 2.07812,-0.93359 2.07812,-2.08594c0,-1.14844 -0.92969,-2.07812 -2.07812,-2.07812zM12.5,17.08594c-1.15234,0 -2.08594,0.92969 -2.08594,2.07812c0,1.15234 0.93359,2.08594 2.08594,2.08594c1.15234,0 2.08594,-0.93359 2.08594,-2.08594c0,-1.14844 -0.93359,-2.07812 -2.08594,-2.07812zM19.16406,17.08594c-1.14844,0 -2.07812,0.92969 -2.07812,2.07812c0,1.15234 0.92969,2.08594 2.07812,2.08594c1.15234,0 2.08594,-0.93359 2.08594,-2.08594c0,-1.14844 -0.93359,-2.07812 -2.08594,-2.07812zM19.16406,17.08594"></path></g></g></g></svg>